<?xml version="1.0" encoding="UTF-8"?>
<svg width="94px" height="94px" viewBox="0 0 94 94" version="1.1" xmlns="http://www.w3.org/2000/svg" xmlns:xlink="http://www.w3.org/1999/xlink">
    <!-- Generator: Sketch 52.2 (67145) - http://www.bohemiancoding.com/sketch -->
    <title>My Lead</title>
    <desc>Created with Sketch.</desc>
    <g id="Page-1" stroke="none" stroke-width="1" fill="none" fill-rule="evenodd">
        <g id="mylead" fill="#bcbcbc">
            <g id="Document" transform="translate(47.000000, 47.000000) scale(-1, 1) rotate(-180.000000) translate(-47.000000, -47.000000) ">
                <g id="Spread">
                    <g id="Layer-1">
                        <g id="Group">
                            <path d="M58.5,81.566 C58.5,87.926 53.338,93.087 46.979,93.087 C40.619,93.087 35.458,87.926 35.458,81.566 C35.458,75.207 40.619,70.045 46.979,70.045 C53.338,70.045 58.5,75.207 58.5,81.566 Z" id="Path"></path>
                            <path d="M64.257,38.727 L61.641,59.103 C61.359,62.055 58.878,64.299 55.904,64.299 L52.761,64.299 C51.974,64.299 51.255,63.985 50.717,63.458 L46.979,59.731 L43.251,63.458 C42.747,63.985 41.994,64.299 41.231,64.299 L38.076,64.299 C35.124,64.299 32.631,62.055 32.351,59.17 L29.735,38.727 C29.612,37.907 29.87,37.064 30.431,36.459 C30.97,35.829 31.755,35.482 32.575,35.482 L35.696,35.482 L38.11,6.102 C38.39,3.139 40.871,0.904 43.836,0.904 L50.156,0.904 C53.131,0.904 55.59,3.139 55.892,6.158 L58.284,35.482 L61.393,35.482 C62.247,35.482 63.022,35.829 63.56,36.459 C64.122,37.064 64.369,37.907 64.257,38.727 Z" id="Path"></path>
                            <path d="M87.296,81.566 C87.296,87.926 82.134,93.087 75.775,93.087 C69.415,93.087 64.254,87.926 64.254,81.566 C64.254,75.207 69.415,70.045 75.775,70.045 C82.134,70.045 87.296,75.207 87.296,81.566 Z" id="Path"></path>
                            <path d="M18.183,93.096 C11.84,93.096 6.665,87.932 6.665,81.589 C6.665,75.234 11.84,70.059 18.183,70.059 C24.526,70.059 29.702,75.234 29.702,81.589 C29.702,87.932 24.526,93.096 18.183,93.096 Z" id="Path"></path>
                            <path d="M93.086,38.727 L90.459,59.103 C90.156,62.055 87.708,64.299 84.722,64.299 L81.556,64.299 C80.793,64.299 80.052,63.985 79.525,63.458 L75.797,59.731 L72.07,63.458 C71.542,63.985 70.813,64.299 70.049,64.299 L66.884,64.299 C66.525,64.299 66.209,64.176 65.873,64.098 C66.613,62.784 67.186,61.37 67.366,59.776 L69.97,39.456 C70.296,36.997 69.544,34.505 67.872,32.642 C67.074,31.732 66.075,31.104 65.008,30.609 L66.917,11.862 C67.22,8.897 69.679,6.674 72.653,6.674 L78.974,6.674 C81.937,6.674 84.396,8.897 84.7,11.929 L87.09,35.482 L90.212,35.482 C91.054,35.482 91.828,35.829 92.368,36.459 C92.917,37.064 93.187,37.907 93.086,38.727 Z" id="Path"></path>
                            <path d="M26.086,32.664 C24.459,34.505 23.695,36.997 24.009,39.456 L26.625,59.933 C26.782,61.448 27.344,62.829 28.073,64.098 C27.748,64.176 27.445,64.299 27.097,64.299 L23.942,64.299 C23.19,64.299 22.438,63.985 21.91,63.458 L18.183,59.731 L14.456,63.458 C13.905,63.985 13.187,64.299 12.435,64.299 L9.269,64.299 C6.294,64.299 3.825,62.055 3.532,59.17 L0.916,38.727 C0.815,37.907 1.073,37.064 1.624,36.459 C2.163,35.829 2.938,35.482 3.769,35.482 L6.878,35.482 L9.303,11.862 C9.595,8.897 12.053,6.674 15.028,6.674 L21.337,6.674 C24.312,6.674 26.771,8.897 27.086,11.929 L28.994,30.609 C27.916,31.104 26.918,31.754 26.086,32.664 Z" id="Path"></path>
                        </g>
                    </g>
                </g>
            </g>
        </g>
    </g>
</svg>