<?xml version="1.0" encoding="UTF-8"?>
<svg width="120px" height="121px" viewBox="0 0 120 121" version="1.1" xmlns="http://www.w3.org/2000/svg" xmlns:xlink="http://www.w3.org/1999/xlink">
    <!-- Generator: Sketch 52.2 (67145) - http://www.bohemiancoding.com/sketch -->
    <title>tools_and_listings_statistics</title>
    <desc>Created with Sketch.</desc>
    <g id="Page-1" stroke="none" stroke-width="1" fill="none" fill-rule="evenodd">
        <g id="tools_and_listings_statistics" transform="translate(0.000000, -1.000000)" fill="#bcbcbc" fill-rule="nonzero">
            <g id="Document" transform="translate(60.000000, 61.000000) scale(-1, 1) rotate(-180.000000) translate(-60.000000, -61.000000) translate(0.000000, -0.000000)">
                <g id="Spread">
                    <g id="Layer-1">
                        <g id="Group">
                            <path d="M20.014,39.002 C20.014,39.002 20.014,39.002 20.004,39.002 L4.015,39.002 C2.899,39.002 2.012,38.114 2.012,37.01 C2.012,37.01 2.012,37.01 2.012,37.01 L2.012,2.997 C2.012,1.902 2.899,0.995 4.015,0.995 C4.015,0.995 4.015,0.995 4.015,0.995 L20.004,0.995 C21.101,0.995 21.998,1.893 21.998,2.989 C21.998,2.989 21.998,2.989 21.998,2.997 L21.998,37.01 C21.998,38.114 21.11,39.002 20.014,39.002 Z M18.022,4.999 L6.017,4.999 L6.017,35.008 L18.022,35.008 L18.022,4.999 Z" id="Shape"></path>
                            <path d="M92.014,55.012 C92.014,55.012 92.014,55.012 92.014,55.012 L76.005,55.012 C74.909,55.012 74.012,54.105 74.012,52.999 C74.012,52.999 74.012,52.999 74.012,52.999 L74.012,2.997 C74.012,1.902 74.89,0.995 76.005,0.995 C76.005,0.995 76.005,0.995 76.005,0.995 L92.014,0.995 C93.101,0.995 94.008,1.893 94.008,2.989 C94.008,2.989 94.008,2.989 94.008,2.997 L94.008,52.999 C94.008,54.105 93.101,55.012 92.014,55.012 Z M90.012,4.999 L78.007,4.999 L78.007,50.997 L90.012,50.997 L90.012,4.999 Z" id="Shape"></path>
                            <path d="M68.014,45.001 C68.014,45.001 68.014,45.001 68.014,45.001 L52.004,45.001 C50.899,45.001 50.012,44.094 50.012,43.007 C50.012,43.007 50.012,43.007 50.012,43.007 L50.012,2.997 C50.012,1.902 50.899,0.995 52.004,0.995 C52.004,0.995 52.004,0.995 52.004,0.995 L68.014,0.995 C69.11,0.995 69.998,1.893 70.016,2.989 C70.016,2.989 70.016,2.989 70.016,2.997 L70.016,43.007 C70.016,44.094 69.11,45.001 68.014,45.001 Z M66.002,4.999 L54.007,4.999 L54.007,40.996 L66.002,40.996 L66.002,4.999 Z" id="Shape"></path>
                            <path d="M43.995,69.001 C43.995,69.001 43.995,69.001 43.995,69.001 L28.015,69.001 C26.899,69.001 26.012,68.102 26.012,66.998 C26.012,66.998 26.012,66.998 26.012,66.998 L26.012,2.997 C26.002,1.902 26.899,0.995 28.015,0.995 C28.015,0.995 28.015,0.995 28.015,0.995 L43.995,0.995 C45.11,0.995 46.008,1.893 46.008,2.989 C46.008,2.989 46.008,2.989 46.008,2.997 L46.008,66.998 C46.008,68.102 45.12,69.001 43.995,69.001 Z M42.002,4.999 L30.007,4.999 L30.007,65.004 L42.002,65.004 L42.002,4.999 Z" id="Shape"></path>
                            <path d="M116.006,29.01 C116.006,29.01 116.006,29.01 116.006,29.01 L100.015,29.01 C98.909,29.01 98.021,28.121 98.021,27.007 C98.021,27.007 98.021,27.007 98.021,27.007 L98.021,2.997 C98.021,1.902 98.909,0.995 100.005,0.995 C100.005,0.995 100.005,0.995 100.015,0.995 L116.006,0.995 C117.12,0.995 118.008,1.893 118.008,2.989 C118.008,2.989 118.008,2.989 118.008,2.997 L118.008,27.007 C118.008,28.113 117.12,29.01 116.006,29.01 Z M114.012,4.999 L102.007,4.999 L102.007,25.015 L114.012,25.015 L114.012,4.999 Z" id="Shape"></path>
                            <path d="M119.528,77.151 C119.395,77.311 119.253,77.426 119.093,77.539 L111.084,82.678 C110.159,83.272 108.941,82.998 108.335,82.091 C108.128,81.761 107.995,81.383 107.995,81.006 L107.995,76.999 L101.082,76.999 L85.685,100.103 C84.996,101.028 83.693,101.208 82.768,100.528 C82.606,100.405 82.465,100.273 82.343,100.103 L60.401,67.169 L37.847,119.787 C37.544,120.542 36.799,121.024 35.986,121.005 C35.164,120.995 34.438,120.494 34.134,119.739 L8.643,55.012 L0,55.012 L0,50.997 L10.011,50.997 C10.824,50.997 11.57,51.498 11.863,52.263 L36.081,113.733 L58.163,62.208 C58.598,61.199 59.788,60.735 60.799,61.16 C61.148,61.322 61.468,61.576 61.677,61.898 L84.005,95.399 L98.353,73.883 C98.71,73.325 99.334,72.995 100.005,72.995 L107.995,72.995 L107.995,69.001 C107.995,67.895 108.902,66.998 110.007,66.998 C110.489,66.998 110.951,67.169 111.31,67.48 L119.311,74.337 C120.133,75.055 120.236,76.32 119.528,77.151 Z M112.01,73.354 L112.01,77.331 L114.664,75.621 L112.01,73.354 Z" id="Shape"></path>
                        </g>
                    </g>
                </g>
            </g>
        </g>
    </g>
</svg>