<?xml version="1.0" encoding="UTF-8"?>
<svg width="90px" height="88px" viewBox="0 0 90 88" version="1.1" xmlns="http://www.w3.org/2000/svg" xmlns:xlink="http://www.w3.org/1999/xlink">
    <!-- Generator: Sketch 52.2 (67145) - http://www.bohemiancoding.com/sketch -->
    <title>postaproperty</title>
    <desc>Created with Sketch.</desc>
    <g id="Page-1" stroke="none" stroke-width="1" fill="none" fill-rule="evenodd">
        <g id="postaproperty" fill="#bcbcbc">
            <g id="Document" transform="translate(45.000000, 44.000000) scale(-1, 1) rotate(-180.000000) translate(-45.000000, -44.000000) ">
                <g id="Spread">
                    <g id="Layer-1">
                        <g id="Group">
                            <g id="Group_1">
                                <path d="M88.276,26.991 C87.261,27.996 86.057,28.498 84.613,28.498 L61.627,28.498 C60.884,26.499 59.617,24.835 57.828,23.547 C56.069,22.27 54.08,21.601 51.903,21.601 L38.108,21.601 C35.91,21.601 33.931,22.27 32.162,23.547 C30.383,24.835 29.116,26.499 28.373,28.498 L5.388,28.498 C3.954,28.498 2.74,27.996 1.724,26.991 C0.719,25.997 0.227,24.762 0.227,23.338 L0.227,6.099 C0.227,4.665 0.719,3.44 1.724,2.435 C2.74,1.441 3.954,0.939 5.388,0.939 L84.613,0.939 C86.057,0.939 87.261,1.441 88.276,2.435 C89.281,3.44 89.773,4.665 89.773,6.099 L89.773,23.338 C89.773,24.762 89.281,25.997 88.276,26.991 Z M68.096,8.852 C67.426,8.171 66.599,7.826 65.667,7.826 C64.715,7.826 63.919,8.171 63.25,8.852 C62.569,9.532 62.224,10.348 62.224,11.27 C62.224,12.201 62.569,13.018 63.25,13.687 C63.919,14.378 64.715,14.724 65.667,14.724 C66.599,14.724 67.426,14.378 68.096,13.687 C68.776,13.018 69.111,12.201 69.111,11.27 C69.111,10.348 68.776,9.532 68.096,8.852 Z M81.881,8.852 C81.19,8.171 80.374,7.826 79.452,7.826 C78.51,7.826 77.705,8.171 77.024,8.852 C76.354,9.532 75.998,10.348 75.998,11.27 C75.998,12.201 76.354,13.018 77.024,13.687 C77.705,14.378 78.51,14.724 79.452,14.724 C80.374,14.724 81.19,14.378 81.881,13.687 C82.561,13.018 82.886,12.201 82.886,11.27 C82.886,10.348 82.561,9.532 81.881,8.852 Z" id="Shape"></path>
                                <path d="M20.889,56.048 L34.664,56.048 L34.664,31.932 C34.664,31.021 35.009,30.204 35.679,29.524 C36.381,28.823 37.176,28.498 38.108,28.498 L51.903,28.498 C52.824,28.498 53.63,28.823 54.311,29.524 C54.991,30.204 55.347,31.021 55.347,31.932 L55.347,56.048 L69.111,56.048 C70.618,56.048 71.675,56.759 72.293,58.214 C72.9,59.617 72.67,60.841 71.539,61.909 L47.434,86.025 C46.774,86.706 45.968,87.061 45.005,87.061 C44.032,87.061 43.216,86.706 42.588,86.025 L18.482,61.909 C17.372,60.841 17.1,59.617 17.707,58.214 C18.335,56.759 19.382,56.048 20.889,56.048 Z" id="Path"></path>
                            </g>
                        </g>
                    </g>
                </g>
            </g>
        </g>
    </g>
</svg>