<?xml version="1.0" encoding="UTF-8"?>
<svg width="20px" height="20px" viewBox="0 0 78 78" version="1.1" xmlns="http://www.w3.org/2000/svg" xmlns:xlink="http://www.w3.org/1999/xlink">
    <!-- Generator: Sketch 52.2 (67145) - http://www.bohemiancoding.com/sketch -->
    <title>Dashboard</title>
    <desc>Created with Sketch.</desc>
    <g id="Page-1" stroke="none" stroke-width="1" fill="none" fill-rule="evenodd">
        <g id="dashboard" fill="#9d060f">
            <g id="Document" transform="translate(39.000000, 39.000000) scale(-1, 1) rotate(-180.000000) translate(-39.000000, -39.000000) ">
                <g id="Spread">
                    <g id="Layer-1">
                        <g id="Group">
                            <g id="Group_1">
                                <path d="M19.553,72.142 C18.828,72.759 17.776,72.759 17.06,72.133 L11.856,67.482 L11.856,68.08 C11.856,68.787 11.275,69.368 10.568,69.368 C9.843,69.368 9.263,68.787 9.263,68.08 L9.263,65.161 L7.114,63.23 C6.588,62.749 6.552,61.943 7.032,61.408 C7.503,60.873 8.311,60.846 8.836,61.308 L18.32,69.794 L27.803,61.308 C28.139,60.982 28.619,60.873 29.063,61.027 C29.507,61.172 29.834,61.535 29.943,61.997 C30.024,62.45 29.87,62.913 29.517,63.23 L19.553,72.142 Z" id="Path"></path>
                                <path d="M26.071,59.685 C25.365,59.685 24.784,59.096 24.784,58.389 L24.784,49.349 L11.856,49.349 L11.856,58.389 C11.856,59.096 11.275,59.685 10.568,59.685 C9.843,59.685 9.263,59.096 9.263,58.389 L9.263,48.524 C9.29,47.527 10.097,46.748 11.085,46.756 L25.555,46.756 C26.534,46.748 27.35,47.527 27.368,48.524 L27.368,58.389 C27.368,59.096 26.797,59.685 26.071,59.685 Z" id="Path"></path>
                                <path d="M18.32,44.173 C13.333,44.173 9.263,40.12 9.263,35.133 C9.263,30.129 13.333,26.067 18.32,26.067 C23.306,26.067 27.368,30.129 27.368,35.133 C27.35,40.12 23.306,44.163 18.32,44.173 Z M11.856,35.133 C11.864,38.189 14.013,40.836 17.023,41.461 L17.023,35.85 L12.236,32.985 C11.992,33.683 11.864,34.39 11.856,35.133 Z M13.578,30.764 L18.111,33.493 L21.874,29.739 C19.235,27.971 15.7,28.425 13.578,30.764 Z M23.705,31.57 L19.616,35.66 L19.616,41.461 C21.72,41.027 23.479,39.576 24.295,37.6 C25.111,35.614 24.884,33.356 23.705,31.57 Z" id="Shape"></path>
                                <path d="M70.025,54.517 L70.025,58.941 C70.025,60.057 69.118,60.972 67.976,60.972 L64.304,60.972 C63.18,60.972 62.264,60.057 62.264,58.941 L62.264,54.517 L59.68,54.517 L59.68,62.622 C59.68,63.847 58.674,64.843 57.441,64.843 L54.159,64.843 C52.917,64.843 51.92,63.847 51.92,62.622 L51.92,54.517 L49.336,54.517 L49.336,68.733 C49.336,70.157 48.184,71.308 46.752,71.308 L44.168,71.308 C42.744,71.308 41.584,70.157 41.584,68.733 L41.584,54.517 L40.287,54.517 C39.58,54.517 39,55.088 39,55.805 L39,71.308 C39,72.024 38.42,72.613 37.703,72.613 C36.988,72.613 36.407,72.024 36.407,71.308 L36.407,55.805 C36.407,53.674 38.157,51.925 40.287,51.925 L70.025,51.925 C70.723,51.925 71.303,52.505 71.303,53.22 C71.303,53.937 70.723,54.517 70.025,54.517 Z M46.752,54.517 L44.168,54.517 L44.168,68.733 L46.752,68.733 L46.752,54.517 Z M57.096,54.517 L54.513,54.517 L54.513,62.269 L57.096,62.269 L57.096,54.517 Z M67.423,54.517 L64.839,54.517 L64.839,58.389 L67.423,58.389 L67.423,54.517 Z" id="Shape"></path>
                                <path d="M70.025,28.66 L40.287,28.66 C39.58,28.66 39,29.249 39,29.939 L39,31.997 L43.252,36.267 C43.76,36.738 44.576,36.738 45.074,36.267 L46.607,34.744 C48.112,33.22 50.569,33.22 52.073,34.744 L57.468,40.138 C57.985,40.628 58.783,40.628 59.29,40.138 L60.822,38.624 C62.337,37.119 64.785,37.119 66.299,38.624 L70.923,43.257 C71.412,43.756 71.412,44.572 70.913,45.061 C70.415,45.56 69.617,45.578 69.118,45.079 L64.477,40.446 C63.96,39.938 63.144,39.938 62.636,40.446 L61.131,41.969 C59.589,43.429 57.178,43.429 55.645,41.969 L50.251,36.566 C49.753,36.067 48.927,36.067 48.411,36.566 L46.906,38.089 C45.374,39.558 42.962,39.558 41.43,38.089 L39,35.66 L39,45.451 C39,46.167 38.42,46.756 37.703,46.756 C36.988,46.756 36.407,46.167 36.407,45.451 L36.407,29.939 C36.407,27.817 38.157,26.067 40.287,26.067 L70.025,26.067 C70.723,26.067 71.303,26.656 71.303,27.373 C71.303,28.08 70.723,28.66 70.025,28.66 Z" id="Path"></path>
                                <path d="M77.767,17.735 L77.767,70.61 C77.958,74.363 75.066,77.564 71.303,77.772 L6.697,77.772 C2.943,77.564 0.051,74.363 0.233,70.61 L0.233,17.735 C0.051,13.973 2.925,10.782 6.697,10.573 L27.368,10.573 L27.368,7.989 L22.2,7.989 C19.335,7.989 17.023,5.659 17.023,2.803 L17.023,1.516 C17.023,0.799 17.603,0.228 18.32,0.228 L59.68,0.228 C60.387,0.228 60.967,0.799 60.967,1.516 L60.967,2.803 C60.967,5.659 58.665,7.989 55.791,7.989 L50.623,7.989 L50.623,10.573 L71.303,10.573 C75.075,10.782 77.958,13.973 77.767,17.735 Z M55.791,5.387 C57.232,5.387 58.393,4.227 58.393,2.803 L19.616,2.803 C19.616,4.227 20.768,5.387 22.2,5.387 L55.791,5.387 Z M29.943,7.989 L29.943,10.573 L48.048,10.573 L48.048,7.989 L29.943,7.989 Z M71.303,13.157 L6.697,13.157 C4.367,13.365 2.635,15.405 2.798,17.735 L2.798,20.917 L75.193,20.917 L75.193,17.735 C75.356,15.405 73.633,13.365 71.303,13.157 Z M75.193,70.61 L75.193,23.483 L2.798,23.483 L2.798,70.61 C2.635,72.94 4.367,74.971 6.697,75.198 L71.303,75.198 C73.633,74.971 75.356,72.94 75.193,70.61 Z" id="Shape"></path>
                            </g>
                        </g>
                    </g>
                </g>
            </g>
        </g>
    </g>
</svg>