<?xml version="1.0" encoding="UTF-8"?>
<svg width="20px" height="20px" viewBox="0 0 285 167" version="1.1" xmlns="http://www.w3.org/2000/svg" xmlns:xlink="http://www.w3.org/1999/xlink">
    <!-- Generator: Sketch 52.2 (67145) - http://www.bohemiancoding.com/sketch -->
    <title>angle-arrow-down</title>
    <desc>Created with Sketch.</desc>
    <g id="Page-1" stroke="none" stroke-width="1" fill="none" fill-rule="evenodd">
        <g id="angle-arrow-down" fill="#000000">
            <path d="M282.082,17.511 L267.808,3.238 C265.906,1.332 263.715,0.382 261.238,0.382 C258.767,0.382 256.577,1.332 254.675,3.238 L142.466,115.441 L30.262,3.241 C28.359,1.335 26.169,0.385 23.695,0.385 C21.22,0.385 19.03,1.335 17.128,3.241 L2.856,17.515 C0.95,19.417 0,21.607 0,24.082 C0,26.555 0.953,28.745 2.856,30.647 L135.899,163.693 C137.801,165.596 139.992,166.547 142.466,166.547 C144.94,166.547 147.127,165.596 149.028,163.693 L282.082,30.647 C283.984,28.744 284.929,26.554 284.929,24.082 C284.929,21.607 283.984,19.417 282.082,17.511 Z" id="Path"></path>
        </g>
    </g>
</svg>