<?xml version="1.0" encoding="UTF-8"?>
<svg width="20px" height="20px" viewBox="0 0 123 97" version="1.1" xmlns="http://www.w3.org/2000/svg" xmlns:xlink="http://www.w3.org/1999/xlink">
    <!-- Generator: Sketch 52.2 (67145) - http://www.bohemiancoding.com/sketch -->
    <title>My Messages</title>
    <desc>Created with Sketch.</desc>
    <g id="Page-1" stroke="none" stroke-width="1" fill="none" fill-rule="evenodd">
        <g id="mymessages" fill="#9d060f">
            <g id="Document" transform="translate(61.500000, 48.500000) scale(-1, 1) rotate(-180.000000) translate(-61.500000, -48.500000) translate(0.000000, -0.000000)">
                <g id="Spread" transform="translate(-0.000000, -0.000000)">
                    <g id="Layer-1" transform="translate(-0.000000, -0.000000)">
                        <g id="Group" transform="translate(-0.000000, -0.000000)">
                            <g id="Group_1" transform="translate(-0.000000, -0.000000)">
                                <path d="M110.657,-1.42108547e-14 C113.396,-1.42108547e-14 115.791,0.917 117.797,2.705 L83.149,37.364 C82.324,36.78 81.522,36.195 80.742,35.645 C78.152,33.742 76.055,32.241 74.427,31.175 C72.823,30.098 70.668,28.997 67.986,27.897 C65.292,26.785 62.782,26.235 60.456,26.235 L60.421,26.235 L60.33,26.235 C58.014,26.235 55.516,26.785 52.834,27.897 C50.14,28.997 47.986,30.098 46.37,31.175 C44.754,32.241 42.645,33.742 40.043,35.645 C39.344,36.172 38.53,36.757 37.67,37.376 L3,2.705 C5.028,0.917 7.401,-1.42108547e-14 10.163,-1.42108547e-14 L110.657,-1.42108547e-14 Z" id="Path"></path>
                                <path d="M6.888,58.774 C4.309,60.516 2.017,62.51 0,64.722 L0,12 L30.556,42.544 C24.447,46.796 16.562,52.218 6.888,58.774 Z" id="Path"></path>
                                <path d="M114.713,58.786 C105.407,52.505 97.521,47.095 91,42.556 L121.544,12 L121.544,64.734 C119.573,62.545 117.315,60.585 114.713,58.786 Z" id="Path"></path>
                                <path d="M111.428,96.192 L10.934,96.192 C7.416,96.192 4.722,94.989 2.842,92.639 C0.94,90.278 0,87.298 0,83.768 C0,80.891 1.261,77.796 3.771,74.45 C6.281,71.092 8.94,68.467 11.759,66.564 C13.295,65.476 17.96,62.22 25.754,56.834 C29.937,53.922 33.616,51.378 36.734,49.189 C39.416,47.321 41.719,45.705 43.611,44.364 C43.851,44.215 44.195,43.962 44.654,43.642 C45.146,43.286 45.765,42.839 46.533,42.278 C48.012,41.212 49.238,40.341 50.212,39.687 C51.198,39.046 52.378,38.278 53.765,37.475 C55.152,36.662 56.47,36.043 57.697,35.63 C58.923,35.217 60.069,35 61.101,35 L61.192,35 L61.227,35 C62.293,35 63.439,35.217 64.665,35.63 C65.891,36.043 67.175,36.639 68.585,37.475 C69.972,38.278 71.164,39.046 72.138,39.687 C73.101,40.341 74.35,41.212 75.817,42.278 C76.596,42.839 77.215,43.286 77.697,43.642 C78.155,43.962 78.499,44.215 78.728,44.364 C80.207,45.407 82.522,47.011 85.616,49.166 C91.29,53.097 99.634,58.885 110.66,66.564 C113.983,68.891 116.769,71.676 119.003,74.954 C121.216,78.232 122.35,81.659 122.35,85.258 C122.35,88.261 121.273,90.828 119.107,92.971 C116.94,95.103 114.373,96.192 111.428,96.192 Z" id="Path"></path>
                            </g>
                        </g>
                    </g>
                </g>
            </g>
        </g>
    </g>
</svg>